Coordinates
version=1
nRows=36
nColumns=34
inDegrees=no

Units are S.I. units (second, meters, Newtons, ...)
If the header above contains a line with 'inDegrees', this indicates whether rotational values are in degrees (yes) or radians (no).

endheader
time	pelvis_tilt	pelvis_list	pelvis_rotation	pelvis_tx	pelvis_ty	pelvis_tz	hip_flexion_r	hip_adduction_r	hip_rotation_r	knee_angle_r	ankle_angle_r	subtalar_angle_r	mtp_angle_r	hip_flexion_l	hip_adduction_l	hip_rotation_l	knee_angle_l	ankle_angle_l	subtalar_angle_l	mtp_angle_l	lumbar_extension	lumbar_bending	lumbar_rotation	arm_flex_r	arm_add_r	arm_rot_r	elbow_flex_r	pro_sup_r	arm_flex_l	arm_add_l	arm_rot_l	elbow_flex_l	pro_sup_l
2.11	0.101073	0.0499747	0.000805735	-0.167795	1.25605	-0.59222	0.0372064	-0.137783	-0.205222	0.268085	-0.487372	0.0377346	-0.142796	-0.0830876	0.00592649	-0.19377	0.135432	-0.499462	-0.155844	-0.142798	-0.371742	-0.00937975	0.00952492	-0.00179297	-0.393674	0.371879	0.563976	1.22094	-0.00663034	-0.466058	0.374851	1.26895	1.77199
2.12	0.107892	0.0480558	-0.000541105	-0.168552	1.26133	-0.591207	0.0158256	-0.127816	-0.188639	0.227187	-0.449697	0.0270198	-0.142796	-0.103745	0.00699947	-0.20329	0.0962938	-0.470492	-0.180485	-0.142798	-0.37999	-0.00906719	0.0116374	0.000923429	-0.359003	0.35215	0.49757	1.18381	-0.0027103	-0.41134	0.322099	1.15317	1.74641
2.13	0.110033	0.047299	0.000176586	-0.169324	1.26509	-0.590175	-0.000402775	-0.119542	-0.176967	0.188026	-0.410276	0.0100993	-0.142796	-0.115317	0.00750539	-0.219592	0.0668198	-0.436221	-0.196572	-0.142799	-0.382303	-0.0103127	0.0109101	0.00438122	-0.325713	0.332393	0.436842	1.1467	0.00406105	-0.361618	0.26422	1.04208	1.72193
2.14	0.108063	0.0477471	0.00296147	-0.170172	1.2674	-0.589167	-0.0107954	-0.113472	-0.171311	0.153333	-0.370662	-0.00927351	-0.142797	-0.117587	0.00740516	-0.239954	0.0487434	-0.398199	-0.20296	-0.1428	-0.379693	-0.0129173	0.00714733	0.00857005	-0.293966	0.311834	0.382379	1.11118	0.0121864	-0.317352	0.200662	0.93807	1.6991
2.15	0.102798	0.0493016	0.00758391	-0.171135	1.26836	-0.58823	-0.0152689	-0.109858	-0.172392	0.125046	-0.332526	-0.0273635	-0.142797	-0.111359	0.00672934	-0.261115	0.0422426	-0.35888	-0.200383	-0.1428	-0.373371	-0.0165638	0.000598719	0.0132573	-0.26405	0.290022	0.334717	1.07935	0.0206745	-0.278712	0.132274	0.843042	1.67792
2.16	0.0951835	0.0517393	0.0136228	-0.172231	1.26806	-0.587404	-0.014256	-0.108691	-0.180282	0.104293	-0.297477	-0.0410686	-0.142797	-0.0982013	0.00553437	-0.279872	0.0462207	-0.321178	-0.19095	-0.142801	-0.364572	-0.0208585	-0.00813227	0.0181359	-0.23636	0.267266	0.29424	1.05322	0.0288996	-0.245649	0.0611639	0.758328	1.65805
2.17	0.0861735	0.0547321	0.0205384	-0.173453	1.2666	-0.586701	-0.00859963	-0.109736	-0.194278	0.0914361	-0.266882	-0.048353	-0.142798	-0.0801169	0.00386751	-0.293689	0.0587362	-0.287828	-0.17736	-0.142802	-0.354426	-0.0253924	-0.0182333	0.0229292	-0.211348	0.244772	0.261108	1.03418	0.0364531	-0.217987	-0.00957823	0.684691	1.63889
2.18	0.0766777	0.0578861	0.0277517	-0.174772	1.26408	-0.586111	0.000584858	-0.112584	-0.212921	0.0861507	-0.241689	-0.0484435	-0.142798	-0.0591953	0.00173856	-0.301178	0.0774764	-0.260709	-0.162066	-0.142802	-0.343838	-0.0298015	-0.0288388	0.0274418	-0.189444	0.224432	0.235246	1.02269	0.0430279	-0.195489	-0.0762566	0.622357	1.61989
2.19	0.0674656	0.0608465	0.0347149	-0.176145	1.26056	-0.585596	0.0120537	-0.116706	-0.234175	0.0875678	-0.222267	-0.0418057	-0.142798	-0.037335	-0.000900849	-0.302246	0.10016	-0.240377	-0.146725	-0.142803	-0.333436	-0.0337849	-0.0391588	0.0315647	-0.17098	0.208335	0.216383	1.01821	0.0483541	-0.177902	-0.135019	0.571089	1.60075
2.2	0.0590853	0.0633269	0.0409797	-0.177514	1.25608	-0.585114	0.0245817	-0.121523	-0.255721	0.0944614	-0.208289	-0.0299129	-0.142799	-0.0160507	-0.00414475	-0.297957	0.124832	-0.225931	-0.131988	-0.142804	-0.323557	-0.0371358	-0.0485691	0.035251	-0.15613	0.198202	0.204119	1.01938	0.0521817	-0.16497	-0.18234	0.530287	1.58156
2.21	0.0518384	0.065139	0.0462465	-0.17882	1.25067	-0.584623	0.0370993	-0.126493	-0.275317	0.105466	-0.198722	-0.0148657	-0.142799	0.00362014	-0.00809188	-0.290124	0.150003	-0.215255	-0.117643	-0.142804	-0.314278	-0.0397594	-0.0566604	0.0384829	-0.144885	0.194895	0.19801	1.0243	0.0542894	-0.156425	-0.21547	0.499131	1.5627
2.22	0.0457896	0.0662187	0.0503882	-0.180013	1.24432	-0.584093	0.0488011	-0.131201	-0.291169	0.119289	-0.191959	0.00107076	-0.1428	0.0211156	-0.0127799	-0.280763	0.174646	-0.205577	-0.103033	-0.142805	-0.305459	-0.0416816	-0.063253	0.0412457	-0.137054	0.198161	0.197613	1.03093	0.0544965	-0.15197	-0.232788	0.476756	1.5447
2.23	0.0408001	0.0666413	0.0534459	-0.181053	1.23704	-0.58351	0.0592134	-0.135442	-0.302238	0.134882	-0.186107	0.0159495	-0.1428	0.0362828	-0.0181158	-0.271574	0.198109	-0.194172	-0.0875406	-0.142805	-0.296816	-0.0430507	-0.0683822	0.0435169	-0.132292	0.206647	0.202508	1.03755	0.0526668	-0.15127	-0.233998	0.462421	1.52799
2.24	0.0365878	0.0666138	0.0556014	-0.18192	1.22878	-0.582878	0.0681876	-0.139261	-0.308383	0.151509	-0.179432	0.0284483	-0.1428	0.0492652	-0.0238354	-0.263574	0.21997	-0.179005	-0.0709436	-0.142806	-0.287997	-0.0441222	-0.0722599	0.045272	-0.13015	0.218195	0.212304	1.04304	0.048712	-0.153933	-0.220187	0.4556	1.51286
2.25	0.0328047	0.0664429	0.0571321	-0.182612	1.21955	-0.582217	0.0758282	-0.142932	-0.310297	0.168712	-0.170821	0.0379728	-0.142801	0.0603721	-0.0295063	-0.256949	0.23992	-0.159164	-0.0535912	-0.142807	-0.27867	-0.0452252	-0.0752206	0.0465027	-0.130134	0.23029	0.226638	1.04703	0.042599	-0.159504	-0.193749	0.455984	1.4998
2.26	0.0291382	0.0664997	0.0583572	-0.183142	1.20931	-0.581558	0.0823997	-0.146883	-0.309308	0.186228	-0.160088	0.0446256	-0.142801	0.0699777	-0.0345914	-0.251137	0.257683	-0.134972	-0.0363298	-0.142807	-0.268583	-0.0467047	-0.0776561	0.0472407	-0.13176	0.240557	0.245159	1.04981	0.0343626	-0.167467	-0.158125	0.463431	1.48956
2.27	0.025329	0.0671362	0.0595942	-0.183542	1.19805	-0.580932	0.0882296	-0.151593	-0.307065	0.203887	-0.148025	0.0490273	-0.142801	0.0784486	-0.0385573	-0.245143	0.273033	-0.107749	-0.0202137	-0.142808	-0.25762	-0.0488662	-0.0799373	0.0475847	-0.134598	0.247172	0.267514	1.05225	0.0241139	-0.177259	-0.117386	0.477902	1.483
2.28	0.0211818	0.0685811	0.0610999	-0.183855	1.18578	-0.580369	0.0936438	-0.157478	-0.305169	0.221539	-0.136191	0.0520509	-0.142802	0.0861309	-0.0410022	-0.237955	0.285878	-0.079362	-0.00610134	-0.142809	-0.245829	-0.0519248	-0.0823523	0.0477228	-0.138299	0.24912	0.293334	1.05551	0.012051	-0.188289	-0.0757173	0.499411	1.48072
2.29	0.0165994	0.0709177	0.0630254	-0.184139	1.17248	-0.579886	0.0989418	-0.164792	-0.304842	0.239028	-0.126494	0.054556	-0.142802	0.0933559	-0.0417548	-0.228911	0.296333	-0.0517588	0.00561297	-0.142809	-0.233418	-0.0559566	-0.0850558	0.0479525	-0.142609	0.246224	0.322242	1.06074	-0.00152868	-0.199976	-0.0369328	0.527945	1.48291
2.3	0.0115929	0.0740829	0.0653891	-0.184464	1.15816	-0.579485	0.104389	-0.173587	-0.30669	0.256223	-0.120679	0.0571596	-0.142802	0.100436	-0.0409067	-0.217898	0.30476	-0.0266367	0.0150619	-0.14281	-0.220756	-0.0608882	-0.0880463	0.0486929	-0.147352	0.238982	0.353874	1.06884	-0.0162098	-0.211769	-0.00408806	0.563387	1.48936
2.31	0.00627654	0.0778913	0.0680717	-0.184912	1.14285	-0.579159	0.110226	-0.183702	-0.310581	0.273077	-0.119843	0.0600625	-0.142803	0.10766	-0.0387844	-0.205384	0.311769	-0.00528137	0.0227789	-0.142811	-0.208355	-0.0665151	-0.091171	0.0504841	-0.152414	0.228331	0.387916	1.08019	-0.0314432	-0.223184	0.0207786	0.605459	1.49956
2.32	0.000832855	0.0820742	0.0708352	-0.185565	1.12654	-0.578884	0.116724	-0.194797	-0.315665	0.289725	-0.124039	0.0629925	-0.142803	0.115319	-0.0358843	-0.192303	0.318184	0.0114904	0.0294711	-0.142811	-0.196823	-0.0725337	-0.0941481	0.053966	-0.157711	0.215357	0.424152	1.09447	-0.0465383	-0.23382	0.0367856	0.653694	1.5128
2.33	-0.0045499	0.0863166	0.0733576	-0.186513	1.10925	-0.578627	0.124258	-0.206385	-0.320519	0.306577	-0.132028	0.0652786	-0.142804	0.123757	-0.032803	-0.179844	0.325028	0.0233837	0.0357613	-0.142812	-0.186781	-0.0785741	-0.0965965	0.0598388	-0.163173	0.201065	0.462487	1.11079	-0.0606741	-0.243363	0.0441944	0.707472	1.52825
2.34	-0.00975682	0.0902788	0.0752729	-0.187843	1.09098	-0.578346	0.133391	-0.217865	-0.323385	0.324404	-0.141207	0.0660306	-0.142804	0.133452	-0.030186	-0.169192	0.333506	0.0307468	0.0419836	-0.142812	-0.178752	-0.0842202	-0.098066	0.0688164	-0.168728	0.186229	0.502965	1.1279	-0.072931	-0.251575	0.0442267	0.766067	1.54504
2.35	-0.0148255	0.0936037	0.0762088	-0.189637	1.0717	-0.577998	0.144953	-0.228521	-0.32243	0.344373	-0.14772	0.064369	-0.142804	0.145107	-0.0287034	-0.161281	0.345015	0.0347557	0.0480905	-0.142813	-0.173067	-0.0890199	-0.0980695	0.0815805	-0.174308	0.171321	0.545751	1.14469	-0.0823365	-0.258259	0.0387462	0.828715	1.56238
2.36	-0.0199984	0.0959151	0.075818	-0.191976	1.05137	-0.577536	0.160078	-0.237523	-0.316012	0.368033	-0.146788	0.0596218	-0.142805	0.159729	-0.0290364	-0.156598	0.361156	0.0375703	0.0536797	-0.142814	-0.169791	-0.0924966	-0.0961241	0.0987542	-0.179845	0.156571	0.591121	1.1604	-0.0879221	-0.263242	0.0298899	0.894695	1.57948
2.37	-0.0257273	0.0968182	0.0738048	-0.194935	1.02993	-0.576917	0.18019	-0.24394	-0.302914	0.397233	-0.133284	0.0514372	-0.142805	0.17865	-0.031859	-0.155036	0.383708	0.0423371	0.0581145	-0.142814	-0.168723	-0.0941707	-0.0918024	0.120892	-0.18528	0.142082	0.639437	1.17468	-0.0887792	-0.266358	0.0197326	0.963397	1.59547
2.38	-0.0326136	0.0959087	0.0699518	-0.198595	1.0073	-0.576102	0.206889	-0.246779	-0.282535	0.433957	-0.102581	0.0397739	-0.142805	0.20347	-0.0378106	-0.15587	0.414559	0.0529288	0.0607067	-0.142815	-0.16948	-0.0935922	-0.0847885	0.148482	-0.190549	0.127954	0.691103	1.18744	-0.084101	-0.267454	0.0100406	1.03434	1.60949
2.39	-0.0412931	0.0927985	0.0641452	-0.203037	0.983405	-0.575063	0.241769	-0.245066	-0.255028	0.480061	-0.0517133	0.0247612	-0.142806	0.2359	-0.0474511	-0.157829	0.455548	0.0733578	0.0609157	-0.142816	-0.171643	-0.0903828	-0.0749358	0.181948	-0.195555	0.114358	0.74651	1.19878	-0.0732069	-0.266404	0.00213695	1.10717	1.62079
2.4	-0.052299	0.087168	0.0563922	-0.208348	0.958151	-0.57379	0.286181	-0.237966	-0.221331	0.536929	0.0193396	0.00647022	-0.142806	0.277536	-0.0611835	-0.159289	0.508231	0.106861	0.0584858	-0.142816	-0.174929	-0.0842944	-0.0623143	0.221656	-0.200125	0.101555	0.805941	1.20885	-0.0555481	-0.263133	-0.00313221	1.18158	1.62889
2.41	-0.0660094	0.0788277	0.0468208	-0.214738	0.931744	-0.572337	0.340988	-0.224951	-0.18304	0.60513	0.106756	-0.0152799	-0.142806	0.329587	-0.0791407	-0.158548	0.573566	0.154773	0.0534624	-0.142817	-0.17936	-0.0752883	-0.0472347	0.267893	-0.203968	0.0898578	0.869497	1.21781	-0.0306913	-0.257645	-0.00535207	1.25728	1.63357
2.42	-0.0824227	0.0678726	0.0357011	-0.222412	0.904446	-0.570773	0.406346	-0.205946	-0.142151	0.684165	0.203062	-0.0409123	-0.142807	0.392598	-0.101077	-0.154133	0.651541	0.215537	0.0460812	-0.142818	-0.185306	-0.0635856	-0.0302533	0.320835	-0.206638	0.0795636	0.937021	1.22581	0.00168482	-0.250047	-0.00447576	1.33395	1.63501
2.43	-0.101125	0.0546761	0.0234537	-0.231433	0.876591	-0.569166	0.481454	-0.181475	-0.100737	0.772376	0.298683	-0.0708146	-0.142807	0.466153	-0.126249	-0.145087	0.740868	0.284441	0.0366152	-0.142818	-0.193507	-0.0497474	-0.0121928	0.380491	-0.207519	0.0709056	1.00809	1.23302	0.0417681	-0.240574	-0.00076263	1.41123	1.63373
2.44	-0.121297	0.0399556	0.0106655	-0.241599	0.849035	-0.567625	0.564337	-0.152747	-0.0607066	0.866997	0.384308	-0.104892	-0.142808	0.548624	-0.153368	-0.131158	0.838851	0.354543	0.0252954	-0.142819	-0.205008	-0.034672	0.00584941	0.446635	-0.205849	0.064025	1.08206	1.23967	0.08957	-0.229611	0.00529345	1.48875	1.63065
2.45	-0.141714	0.02473	-0.00191948	-0.251991	0.823691	-0.566239	0.651861	-0.12164	-0.02368	0.964325	0.453091	-0.142184	-0.142808	0.637136	-0.180658	-0.112885	0.941522	0.418551	0.0123609	-0.142819	-0.220957	-0.0195365	0.0225422	0.518756	-0.200796	0.0589769	1.15819	1.246	0.144894	-0.217687	0.0130697	1.56621	1.62696
2.46	-0.161143	0.0102365	-0.0134605	-0.261859	0.80165	-0.565052	0.740083	-0.0905265	0.00905567	1.06012	0.50185	-0.180756	-0.142808	0.727862	-0.206085	-0.0915299	1.0441	0.470703	-0.00182002	-0.14282	-0.242394	-0.00562185	0.0364481	0.596077	-0.191572	0.055753	1.23572	1.25225	0.207355	-0.205432	0.0219529	1.64331	1.62402
